<svg fill="#000000" xmlns="http://www.w3.org/2000/svg"  viewBox="0 0 80 80" width="80px" height="80px"><path d="M 38.667969 5 C 36.949889 5 32.751728 5.2603534 28.824219 7.0566406 C 25.281585 8.6769012 22.091114 11.831745 21.470703 16.884766 C 17.888118 14.698924 14.175781 14.847656 14.175781 14.847656 A 1.0001 1.0001 0 0 0 13.382812 16.339844 C 13.382812 16.339844 18.257378 25.004299 19.494141 35.246094 C 14.714816 38.767005 13 44.095104 13 49.130859 C 13 56.908776 20.247828 61.801912 20.542969 61.998047 L 20.626953 62.070312 C 22.049149 63.297413 24.274098 64.279909 26.236328 65.052734 C 28.199939 65.826104 29.849817 66.331508 30.027344 66.384766 L 31.585938 66.857422 C 33.995424 69.530493 38.419177 72.753504 46.042969 74.769531 L 46.785156 74.966797 A 1.0001 1.0001 0 0 0 48.041016 74.041016 L 48.072266 73.271484 A 1.0001 1.0001 0 0 0 48.074219 73.267578 C 48.355689 65.862323 49.54666 61.425602 50.09375 59.669922 C 50.809878 59.589282 51.719661 59.504248 52.941406 59.255859 C 54.447825 58.949594 56.064048 58.506313 57.263672 57.578125 C 67.364631 51.232915 70.882812 37.501953 70.882812 37.501953 A 1.0001 1.0001 0 0 0 69.943359 36.246094 A 1.0001 1.0001 0 0 0 69.279297 36.474609 C 69.279297 36.474609 61.269337 42.998774 50.980469 45.386719 C 50.716781 42.60952 49.985658 40.497204 49.392578 39.148438 L 49.392578 39.146484 C 49.215877 38.744433 48.456398 37.042449 47.289062 35.394531 C 46.312866 34.016444 45.030725 32.562595 43.349609 32.136719 C 43.087274 31.561511 42.784402 31.003903 42.494141 30.537109 C 42.301039 30.226567 42.122065 29.955489 41.990234 29.755859 C 41.956454 29.704709 41.936886 29.675409 41.910156 29.634766 C 41.870376 29.359484 42.003796 28.793782 42.369141 28.203125 C 42.750993 27.585778 43.292184 26.995935 43.544922 26.761719 A 1.0001 1.0001 0 0 0 43.728516 26.533203 L 44.119141 25.869141 C 49.633302 29.630146 52.554687 36.005859 52.554688 36.005859 A 1.0001 1.0001 0 0 0 54.462891 35.710938 C 54.462891 35.710938 54.641605 34.081626 54.515625 31.988281 C 54.439255 30.719286 54.171813 29.289138 53.75 27.873047 C 56.576145 29.35964 59.404297 31.433594 59.404297 31.433594 A 1.0001 1.0001 0 0 0 61.044922 30.597656 C 61.044922 30.597656 60.85106 28.135646 59.033203 25.025391 C 57.682648 22.714663 55.413544 19.99401 51.705078 17.478516 C 54.279108 17.946708 56.474609 18.470703 56.474609 18.470703 A 1.0001 1.0001 0 0 0 57.603516 16.978516 C 57.603516 16.978516 52.263047 8.2890625 43.601562 8.2890625 C 40.25781 8.2890625 37.333492 9.008615 34.982422 9.9121094 C 36.294173 8.7699014 37.715734 7.5909108 39.113281 6.8964844 A 1.0001 1.0001 0 0 0 38.667969 5 z M 34.753906 7.3867188 C 34.03045 7.9555704 33.310437 8.5382347 32.679688 9.1367188 C 31.241708 10.501138 30.277675 11.717334 29.689453 12.806641 C 29.678363 12.815441 29.664687 12.825784 29.654297 12.833984 L 29.662109 12.839844 C 29.603579 12.949718 29.406783 13.104801 29.359375 13.210938 A 1.0001 1.0001 0 0 0 30.892578 14.404297 C 30.935488 14.370417 30.970818 14.340573 31.003906 14.314453 A 1.0001 1.0001 0 0 0 31.005859 14.314453 C 32.498471 13.131629 37.38928 10.289063 43.601562 10.289062 C 48.360292 10.289062 51.975844 13.505485 54.035156 15.800781 C 52.003132 15.339717 49.414405 14.867188 46.890625 14.867188 A 1.0001 1.0001 0 0 0 46.457031 16.767578 C 52.560226 19.704278 55.680497 23.250959 57.306641 26.033203 C 57.773648 26.832228 57.905241 27.352378 58.15625 27.984375 C 56.489035 26.807961 54.329386 25.468388 52.121094 24.779297 A 1.0001 1.0001 0 0 0 50.978516 26.267578 C 51.958667 27.820468 52.37301 30.071939 52.5 31.964844 C 50.23755 28.352384 45.87064 22.831587 38.859375 21.462891 A 1.0001 1.0001 0 1 0 38.476562 23.425781 C 39.890759 23.701852 41.19094 24.20944 42.400391 24.841797 L 42.005859 25.515625 L 42.001953 25.521484 C 41.609815 25.907746 41.119952 26.422818 40.669922 27.150391 C 40.475541 27.464648 40.299385 27.814477 40.152344 28.181641 C 39.90551 28.129111 39.637522 28.089348 39.330078 28.099609 L 39.328125 28.099609 C 38.260847 28.135449 37.536059 28.654849 37.296875 28.841797 A 1.0001 1.0001 0 1 0 38.527344 30.417969 C 38.635993 30.333049 38.946983 30.112462 39.396484 30.097656 C 39.628705 30.089726 39.807242 30.139482 39.953125 30.195312 A 1.0001 1.0001 0 0 0 40 30.332031 C 40.08839 30.533236 40.105067 30.528102 40.152344 30.601562 C 40.199624 30.675023 40.256962 30.758534 40.322266 30.857422 C 40.452872 31.055198 40.618274 31.309668 40.794922 31.59375 C 40.921041 31.796573 41.047223 32.02353 41.171875 32.246094 C 41.100567 32.277413 40.987988 32.315715 40.951172 32.335938 C 39.486916 33.136998 39.174155 34.803252 39.050781 36.144531 C 39.030677 36.363102 39.02563 36.566684 39.017578 36.773438 C 37.036366 35.054704 34.88408 34 32.832031 34 C 31.870723 34 30.955925 34.25687 30.191406 34.773438 C 28.416363 35.972262 27.760729 38.286338 28.080078 40.941406 C 28.352199 43.213715 29.351714 45.640454 30.779297 47.947266 C 29.648501 47.976506 28.334176 48.118906 26.789062 48.734375 C 25.977308 49.057792 23.457192 50.142872 21.560547 52.818359 C 20.32887 54.555713 19.688259 56.647824 19.708984 58.677734 C 17.730877 56.766383 15 53.369367 15 49.130859 C 15 44.322015 16.5203 39.508914 21.132812 36.433594 A 1.0001 1.0001 0 0 0 21.572266 35.492188 C 20.542577 26.018878 16.962319 19.009842 15.875 16.970703 C 17.286666 17.078485 19.369276 17.435308 21.583984 19.265625 A 1.0001 1.0001 0 0 0 23.222656 18.494141 C 23.223122 13.173593 26.164009 10.474166 29.65625 8.8769531 C 31.349757 8.1024099 33.159214 7.6597709 34.753906 7.3867188 z M 34.875 20.568359 L 34.072266 20.970703 L 33.916016 21.851562 L 34.527344 22.505859 L 34.875 22.568359 L 35.675781 22.167969 L 35.833984 21.285156 L 35.220703 20.630859 L 34.875 20.568359 z M 31.001953 21.421875 L 30.201172 21.824219 L 30.042969 22.705078 L 30.654297 23.361328 L 31.001953 23.421875 L 31.802734 23.021484 L 31.960938 22.138672 L 31.349609 21.484375 L 31.001953 21.421875 z M 28 24 L 27.199219 24.402344 L 27.041016 25.283203 L 27.652344 25.9375 L 28 26 L 28.800781 25.597656 L 28.958984 24.716797 L 28.347656 24.0625 L 28 24 z M 30.152344 27.978516 C 29.435366 28.005653 28.617874 28.157167 27.839844 28.570312 C 24.004566 30.605594 24 35 24 35 A 1.0001 1.0001 0 1 0 26 35 C 26 35 25.9946 31.814609 28.777344 30.337891 C 29.862596 29.761608 31.734375 30.160156 31.734375 30.160156 A 1.0001 1.0001 0 1 0 32.265625 28.232422 C 32.265625 28.232422 31.677072 28.041259 30.830078 27.988281 C 30.61833 27.975036 30.391336 27.96947 30.152344 27.978516 z M 42.347656 34 C 42.36581 33.999732 42.385915 34.007301 42.404297 34.007812 A 1.0002081 1.0002081 0 0 0 42.689453 34.042969 C 43.614635 34.246583 44.747157 35.264665 45.658203 36.550781 C 46.684405 37.999461 47.405762 39.596347 47.5625 39.953125 C 48.100643 41.176692 48.775351 43.098371 49.005859 45.679688 A 1.0001 1.0001 0 0 0 49.017578 45.792969 C 48.664203 45.854026 48.304747 45.895473 47.947266 45.945312 C 48.393854 45.630051 48.584621 45.100382 48.060547 43.851562 C 47.159547 41.703562 45.595359 40.311187 44.568359 40.742188 C 43.986932 40.986432 43.71418 41.772589 43.740234 42.791016 C 43.401717 42.156799 43.02413 41.523554 42.603516 40.894531 C 42.125186 40.17843 41.606856 39.516887 41.074219 38.884766 A 1.0001 1.0001 0 0 0 41.072266 38.650391 C 41.055486 38.508132 40.942346 37.422096 41.042969 36.328125 C 41.143595 35.234154 41.526412 34.299782 41.910156 34.089844 A 1.0001 1.0001 0 0 0 41.912109 34.089844 C 41.951789 34.068024 42.039217 34.00429 42.347656 34 z M 32.832031 36 C 34.976979 36 38.487962 38.332834 40.941406 42.005859 C 42.119432 43.767578 42.923299 45.566071 43.359375 47.193359 A 1.0001 1.0001 0 0 0 43.496094 47.761719 C 43.590814 48.193232 43.66611 48.614042 43.705078 49.011719 C 43.903938 51.041132 43.403918 52.436855 42.433594 53.09375 C 42.013925 53.377116 41.53091 53.525391 40.912109 53.525391 C 40.178182 53.525391 39.278668 53.234995 38.322266 52.728516 C 38.898751 52.867223 39.397556 52.812643 39.738281 52.521484 C 40.666281 51.730484 40.075969 49.510359 38.417969 47.568359 C 36.758969 45.626359 34.660422 44.693328 33.732422 45.486328 C 32.951479 46.153664 33.257649 47.830254 34.359375 49.501953 C 33.814946 48.891924 33.28611 48.240265 32.804688 47.519531 C 31.281861 45.24149 30.315762 42.785337 30.066406 40.703125 C 29.799827 38.486785 30.336485 37.089044 31.310547 36.431641 A 1.0001 1.0001 0 0 0 31.3125 36.431641 C 31.731934 36.148207 32.213339 36 32.832031 36 z M 67.90625 39.914062 C 66.313804 44.10443 62.703682 51.838714 56.146484 55.925781 A 1.0001 1.0001 0 0 0 56.058594 55.988281 C 55.361618 56.534043 53.929533 57.013024 52.542969 57.294922 C 51.156404 57.57682 49.838633 57.701384 49.166016 57.783203 A 1.0001 1.0001 0 0 0 48.335938 58.462891 C 47.818072 60.035971 46.483724 64.950415 46.128906 72.683594 C 36.679699 70.068542 32.743278 65.599922 31.513672 63.392578 A 1.0006914 1.0006914 0 0 0 29.681641 64.169922 C 29.003274 63.946788 28.094515 63.636743 26.96875 63.193359 C 25.124243 62.466899 23.05806 61.460243 22.033203 60.607422 C 21.375344 58.606199 21.788377 55.953665 23.191406 53.974609 C 24.752761 51.772096 26.825052 50.874333 27.529297 50.59375 C 29.469116 49.821057 31.198772 49.847653 32.171875 49.939453 C 34.742196 53.239834 37.917871 55.525391 40.912109 55.525391 C 41.872574 55.525391 42.788707 55.267973 43.554688 54.75 C 45.330362 53.547895 45.936203 51.274743 45.695312 48.816406 C 45.675259 48.611759 45.640687 48.402223 45.609375 48.193359 C 55.391907 47.628978 63.841378 42.693085 67.90625 39.914062 z M 45.263672 42.142578 C 45.692672 42.015578 46.200531 42.450328 46.394531 43.111328 C 46.588531 43.772328 46.39775 44.410109 45.96875 44.537109 C 45.53975 44.664109 45.031891 44.229359 44.837891 43.568359 C 44.643891 42.907359 44.834672 42.269578 45.263672 42.142578 z M 35.023438 47.568359 C 35.478547 47.572203 36.035188 47.926266 36.429688 48.509766 C 36.957687 49.287766 36.996578 50.179906 36.517578 50.503906 C 36.040578 50.827906 35.227172 50.457688 34.701172 49.679688 C 34.175172 48.901688 34.134328 48.007547 34.611328 47.685547 C 34.731078 47.604547 34.871734 47.567078 35.023438 47.568359 z M 33.457031 55.414062 C 32.497531 55.346563 31.221984 55.530156 29.958984 56.535156 C 28.815984 57.444156 28.857422 59.244141 28.857422 59.244141 C 28.857422 59.244141 30.641313 58.516922 31.570312 58.169922 C 32.902312 58.169922 34.883078 61.534234 37.080078 64.115234 C 39.193078 66.597234 43.560547 68.298828 43.560547 68.298828 C 43.514547 62.600828 45.214844 58.28125 45.214844 58.28125 C 45.214844 58.28125 44.432406 58.419922 40.941406 58.419922 C 37.450406 58.419922 33.212891 57.676875 33.212891 57.171875 L 35.060547 55.800781 C 35.060547 55.800781 34.416531 55.481562 33.457031 55.414062 z M 36.943359 59.494141 C 38.043359 59.635141 38.953125 60.839844 38.953125 60.839844 C 38.953125 60.839844 39.13625 59.934359 39.78125 60.068359 C 41.17225 60.359359 40.931641 64.582031 40.931641 64.582031 C 40.931641 64.582031 39.132781 64.257109 37.675781 62.287109 C 37.205781 61.652109 37.064516 61.437734 36.728516 60.927734 C 36.567516 60.684734 36.310359 59.413141 36.943359 59.494141 z"/></svg>